# xmcd
#
# Track frame offsets:
#	180
#	3923
#	16744
#	48368
#	63932
#	87245
#	100629
#	109900
#	125220
#	143731
#	159917
#	177264
#
# Disc length: 2419 seconds
#
# Revision: 0
# Processed by: cddbd v1.4PL0 Copyright (c) Steve Scherf et al.
# Submitted via: EasyCDDAExtractor 4.6.0.1
#
DISCID=8e09710c
DTITLE=Amedee Frederick - Creole Man
DYEAR=1996
DGENRE=Blues
TTITLE0=Falling On My Knees
TTITLE1=Stuck In A Blizzard 
TTITLE2=Creole Man
TTITLE3=Payday Man
TTITLE4=Cain Snake
TTITLE5=Trouble In My Home "Rats And Roches"
TTITLE6=Goin Fishin
TTITLE7=Raining In My Heart
TTITLE8=Too Many Irons In The Fire
TTITLE9=A Mothers Love
TTITLE10=I Wanna Dance
TTITLE11=Falling On My Knees
EXTD=
EXTT0=
EXTT1=
EXTT2=
EXTT3=
EXTT4=
EXTT5=
EXTT6=
EXTT7=
EXTT8=
EXTT9=
EXTT10=
EXTT11=
PLAYORDER=
